#!OML:ASF I:\Actors\actors\Patient Classification 2\Patient 1\Session 1\actor1.ASF
:FULLY-SPECIFIED
:DEGREES
596
root -0.784176 18.8104 4.93752 5.72322 -1.44121 -1.43488
lowerback 9.78783 0.875373 -0.875966
upperback 5.84329 1.08763 0.673174
thorax 0.549198 0.509769 1.0879
lowerneck -18.3332 -2.38362 -2.54072
upperneck 23.9191 -3.10421 1.94408
head 10.8166 -1.40174 0.674717
rclavicle 4.03781e-016 -1.25483e-015
rhumerus -0.774892 24.6707 -90.1682
rradius 66.979
rwrist 14.1753
rhand -23.7596 -39.5283
rfingers 7.12502
rthumb 2.70951 290.509
lclavicle 4.03781e-016 -1.25483e-015
lhumerus 2.15252 -21.9111 98.4078
lradius 62.3073
lwrist 1.47225
lhand -30.1826 -61.3157
lfingers 7.12502
lthumb -3.49384 -31.3646
rfemur 0 0 0
rtibia 0
rfoot 0 0
rtoes 0
lfemur -11.3737 -6.65691 -11.7627
ltibia 21.5495
lfoot -20.714 17.0992
ltoes -54.2974
597
root -0.783853 18.8109 4.93846 5.71575 -1.42971 -1.45228
lowerback 9.80606 0.870587 -0.840723
upperback 5.81287 1.08406 0.675284
thorax 0.508219 0.509181 1.07006
lowerneck -18.3022 -2.36514 -2.43082
upperneck 23.6705 -3.08801 1.87323
head 10.7152 -1.39433 0.633561
rclavicle -2.36057e-016 7.33018e-015
rhumerus -0.893503 24.721 -90.245
rradius 67.1157
rwrist 14.0734
rhand -24.0287 -39.3297
rfingers 7.12502
rthumb 2.4496 290.705
lclavicle -2.36057e-016 7.33018e-015
lhumerus 1.95386 -21.8226 98.4654
lradius 62.5775
lwrist 1.52053
lhand -30.0549 -60.9592
lfingers 7.12502
lthumb -3.37045 -31.0061
rfemur 0 0 0
rtibia 0
rfoot 0 0
rtoes 0
lfemur -11.3597 -6.7014 -11.7416
ltibia 21.5383
lfoot -20.7845 17.1124
ltoes -54.2067
598
root -0.785775 18.812 4.94443 5.71964 -1.41763 -1.45032
lowerback 9.68924 0.877236 -0.845987
upperback 5.76458 1.09337 0.65822
thorax 0.52166 0.514196 1.05574
lowerneck -18.2115 -2.3643 -2.36228
upperneck 23.4789 -3.10848 1.88353
head 10.6268 -1.39768 0.623785
rclavicle 2.36678e-015 2.01269e-015
rhumerus -1.04333 24.6653 -90.4462
rradius 67.2272
rwrist 14.0713
rhand -23.9887 -39.166
rfingers 7.12502
rthumb 2.48824 290.869
lclavicle 2.36678e-015 2.01269e-015
lhumerus 1.80942 -21.9371 98.4027
lradius 62.7398
lwrist 1.58409
lhand -29.9675 -60.6865
lfingers 7.12502
lthumb -3.28611 -30.7321
rfemur 0 0 0
rtibia 0
rfoot 0 0
rtoes 0
lfemur -11.3412 -6.64865 -11.7414
ltibia 21.5223
lfoot -20.7544 17.0862
ltoes -54.28
599
root -0.787956 18.8126 4.95448 5.72178 -1.35509 -1.39172
lowerback 9.45572 0.8701 -0.89879
upperback 5.70597 1.08186 0.633807
thorax 0.588004 0.50764 1.064
lowerneck -18.1962 -2.38926 -2.41193
upperneck 23.4261 -3.1607 2.00559
head 10.6089 -1.41134 0.668369
rclavicle 8.49804e-015 6.95746e-016
rhumerus -1.2156 24.6544 -90.553
rradius 67.4339
rwrist 14.2247
rhand -23.9767 -39.06
rfingers 7.12502
rthumb 2.49985 290.975
lclavicle 8.49804e-015 6.95746e-016
lhumerus 1.73832 -22.2289 98.23
lradius 62.7924
lwrist 1.66592
lhand -29.9217 -60.5109
lfingers 7.12502
lthumb -3.24181 -30.5558
rfemur 0 0 0
rtibia 0
rfoot 0 0
rtoes 0
lfemur -11.3083 -6.59032 -11.8047
ltibia 21.5022
lfoot -20.6589 17.0171
ltoes -54.384
600
root -0.788634 18.812 4.96541 5.67283 -1.25788 -1.37216
lowerback 9.28357 0.827772 -0.906099
upperback 5.58425 1.0272 0.648026
thorax 0.55652 0.48087 1.08879
lowerneck -18.1675 -2.41175 -2.57042
upperneck 23.5184 -3.19257 2.1726
head 10.6442 -1.41959 0.750327
rclavicle -1.22377e-015 -5.2181e-015
rhumerus -1.48186 24.7565 -90.5982
rradius 67.6464
rwrist 14.3173
rhand -23.9725 -39.0884
rfingers 7.12502
rthumb 2.50388 290.947
lclavicle -1.22377e-015 -5.2181e-015
lhumerus 1.60551 -22.4962 98.0552
lradius 62.8049
lwrist 1.75468
lhand -29.8289 -60.1651
lfingers 7.12502
lthumb -3.15223 -30.2087
rfemur 0 0 0
rtibia 0
rfoot 0 0
rtoes 0
lfemur -11.2248 -6.5799 -11.8276
ltibia 21.4836
lfoot -20.6179 16.9318
ltoes -54.4309
601
root -0.78791 18.8111 4.9759 5.58546 -1.14497 -1.43984
lowerback 9.14203 0.773009 -0.839448
upperback 5.43768 0.961614 0.708705
thorax 0.483304 0.44999 1.12015
lowerneck -18.0761 -2.42498 -2.6639
upperneck 23.594 -3.20446 2.23547
head 10.6576 -1.42633 0.787677
rclavicle -4.89818e-015 -2.23633e-016
rhumerus -1.67145 24.854 -90.6017
rradius 67.6738
rwrist 14.4568
rhand -24.3225 -39.2604
rfingers 7.12502
rthumb 2.1659 290.771
lclavicle -4.89818e-015 -2.23633e-016
lhumerus 1.46038 -22.6538 97.9612
lradius 62.7439
lwrist 1.78761
lhand -29.6719 -59.4191
lfingers 7.12502
lthumb -3.00058 -29.4605
rfemur 0 0 0
rtibia 0
rfoot 0 0
rtoes 0
lfemur -11.1171 -6.6087 -11.7582
ltibia 21.4696
lfoot -20.6232 16.8616
ltoes -54.4462
602
root -0.785818 18.8095 4.98825 5.46861 -1.06537 -1.48052
lowerback 8.88186 0.742207 -0.807603
upperback 5.35184 0.925561 0.758089
thorax 0.537227 0.432249 1.1587
lowerneck -18.0082 -2.41977 -2.65842
upperneck 23.5639 -3.19606 2.22016
head 10.6329 -1.42471 0.783092
rclavicle 1.00045e-014 5.34078e-015
rhumerus -1.63923 24.8967 -90.5022
rradius 67.5253
rwrist 14.8112
rhand -25.0866 -39.5834
rfingers 7.12502
rthumb 1.42794 290.442
lclavicle 1.00045e-014 5.34078e-015
lhumerus 1.39657 -22.758 97.9083
lradius 62.6218
lwrist 1.76325
lhand -29.405 -58.1275
lfingers 7.12502
lthumb -2.74283 -28.1654
rfemur 0 0 0
rtibia 0
rfoot 0 0
rtoes 0
lfemur -10.9677 -6.6763 -11.7423
ltibia 21.4645
lfoot -20.6519 16.858
ltoes -54.4574
603
root -0.782415 18.8064 5.0034 5.30384 -1.041 -1.4707
lowerback 8.60386 0.751666 -0.797536
upperback 5.2829 0.940918 0.778345
thorax 0.617484 0.439887 1.17548
lowerneck -17.9849 -2.44432 -2.67237
upperneck 23.5474 -3.23644 2.25556
head 10.6245 -1.44036 0.792453
rclavicle -5.66536e-015 -3.19298e-015
rhumerus -1.5727 24.8888 -90.3294
rradius 67.3069
rwrist 15.4037
rhand -25.7933 -39.8372
rfingers 7.12502
rthumb 0.745383 290.184
lclavicle -5.66536e-015 -3.19298e-015
lhumerus 1.40749 -22.9837 97.8201
lradius 62.5097
lwrist 1.73108
lhand -29.2268 -56.2036
lfingers 7.12502
lthumb -2.57076 -26.2394
rfemur 0 0 0
rtibia 0
rfoot 0 0
rtoes 0
lfemur -10.7399 -6.81754 -11.8035
ltibia 21.4685
lfoot -20.7833 16.8996
ltoes -54.4338
604
root -0.778956 18.8029 5.01993 5.09486 -0.992088 -1.45047
lowerback 8.39891 0.752891 -0.755417
upperback 5.17522 0.947106 0.780636
thorax 0.618665 0.444536 1.1553
lowerneck -17.9487 -2.50032 -2.67465
upperneck 23.5735 -3.32345 2.28163
head 10.6302 -1.47732 0.78992
rclavicle -7.59109e-015 1.15544e-015
rhumerus -1.60262 25.0452 -90.161
rradius 67.0247
rwrist 15.5812
rhand -27.2483 -39.6387
rfingers 7.12502
rthumb -0.659899 290.383
lclavicle -7.59109e-015 1.15544e-015
lhumerus 1.45257 -23.2998 97.656
lradius 62.3806
lwrist 1.66274
lhand -29.132 -53.6889
lfingers 7.12502
lthumb -2.47917 -23.7236
rfemur 0 0 0
rtibia 0
rfoot 0 0
rtoes 0
lfemur -10.4622 -6.95962 -11.8734
ltibia 21.4734
lfoot -20.9159 16.9107
ltoes -54.4311
605
root -0.775806 18.7994 5.03813 4.88387 -0.913983 -1.43958
lowerback 8.16164 0.712325 -0.700341
upperback 5.04594 0.898817 0.768526
thorax 0.617167 0.422527 1.11737
lowerneck -17.8534 -2.52425 -2.62226
upperneck 23.4867 -3.37026 2.26935
head 10.5801 -1.49689 0.770872
rclavicle 1.32099e-014 -2.38542e-015
rhumerus -1.68059 25.6682 -89.9983
rradius 66.6377
rwrist 14.5568
rhand -30.336 -38.9548
rfingers 7.12502
rthumb -3.64198 291.097
lclavicle 1.32099e-014 -2.38542e-015
lhumerus 1.50067 -23.5632 97.3798
lradius 62.1744
lwrist 1.61806
lhand -28.7613 -51.025
lfingers 7.12502
lthumb -2.12122 -21.0558
rfemur 0 0 0
rtibia 0
rfoot 0 0
rtoes 0
lfemur -10.184 -7.00332 -11.9295
ltibia 21.4764
lfoot -20.9352 16.8739
ltoes -54.5088
606
root -0.772198 18.7962 5.05753 4.73173 -0.866673 -1.40599
lowerback 7.85252 0.682418 -0.681367
upperback 4.88475 0.862441 0.743109
thorax 0.621744 0.405919 1.0855
lowerneck -17.7666 -2.53794 -2.63335
upperneck 23.3558 -3.41129 2.365
head 10.5189 -1.50662 0.801778
rclavicle 6.28501e-015 -6.83322e-017
rhumerus -1.66611 25.9178 -89.7253
rradius 66.2309
rwrist 15.3472
rhand -31.541 -38.9369
rfingers 7.12502
rthumb -4.80555 291.138
lclavicle 6.28501e-015 -6.83322e-017
lhumerus 1.51646 -23.9246 96.9943
lradius 62.0018
lwrist 1.62574
lhand -28.1836 -48.4156
lfingers 7.12502
lthumb -1.56322 -18.4416
rfemur 0 0 0
rtibia 0
rfoot 0 0
rtoes 0
lfemur -9.95962 -6.93214 -12.0085
ltibia 21.478
lfoot -20.9156 16.7619
ltoes -54.5841
